<?xml version="1.0" encoding="UTF-8"?>
<!DOCTYPE svg PUBLIC "-//W3C//DTD SVG 1.1//EN" "http://www.w3.org/Graphics/SVG/1.1/DTD/svg11.dtd">
<!-- Creator: CorelDRAW 2021 (64-Bit) -->
<svg xmlns="http://www.w3.org/2000/svg" xml:space="preserve" width="49mm" height="49mm" version="1.1" style="shape-rendering:geometricPrecision; text-rendering:geometricPrecision; image-rendering:optimizeQuality; fill-rule:evenodd; clip-rule:evenodd"
viewBox="0 0 4900 4900"
 xmlns:xlink="http://www.w3.org/1999/xlink"
 xmlns:xodm="http://www.corel.com/coreldraw/odm/2003">
 <defs>
  <style type="text/css">
   <![CDATA[
    .fil1 {fill:white}
    .fil0 {fill:url(#id0)}
   ]]>
  </style>
  <linearGradient id="id0" gradientUnits="userSpaceOnUse" x1="5031.98" y1="2269.99" x2="30.35" y2="2352.87">
   <stop offset="0" style="stop-opacity:1; stop-color:#CAA8F5"/>
   <stop offset="1" style="stop-opacity:1; stop-color:#B4C5E4"/>
  </linearGradient>
 </defs>
 <g id="Layer_x0020_1">
  <metadata id="CorelCorpID_0Corel-Layer"/>
  <rect class="fil0" x="32.08" y="35.7" width="4843.8" height="4843.8" rx="1230.22" ry="1230.22"/>
  <path class="fil1" d="M2448.41 1303.76c57.19,0 103.99,46.79 103.99,103.99l0 1719.22c0,57.2 -46.8,103.99 -104,103.99 -57.19,0 -103.99,-46.79 -103.99,-103.99l0 -1719.22c0,-57.2 46.8,-103.99 104,-103.99zm1188.26 1349.94l0 -788.12c0,-653.54 -534.71,-1188.26 -1188.27,-1188.26 -653.55,0 -1188.26,534.72 -1188.26,1188.26l0 788.12c0,653.55 534.71,1188.26 1188.27,1188.26 653.55,0 1188.26,-534.71 1188.26,-1188.26zm-689.8 -978.86c57.2,0 103.99,46.8 103.99,103.99l0 977.06c0,57.19 -46.79,103.98 -104,103.98 -57.19,0 -103.98,-46.79 -103.98,-103.98l0 -977.06c0,-57.19 46.79,-103.99 103.99,-103.99zm-986.72 0c57.2,0 103.99,46.8 103.99,103.99l0 977.06c0,57.19 -46.79,103.98 -104,103.98 -57.19,0 -103.98,-46.79 -103.98,-103.98l0 -977.06c0,-57.19 46.79,-103.99 103.99,-103.99zm1867.6 978.7c0,78.2 -6.53,154.88 -19.09,229.52l0 592.53c145.74,-239.66 229.68,-521.05 229.68,-822.05 0,-29.6 -0.82,-59.03 -2.41,-88.23 -0.03,-0.42 -0.06,-0.84 -0.08,-1.26 -0.06,-1.16 -0.13,-2.32 -0.19,-3.48 -4.71,-64.72 -53.7,-114.05 -110.79,-110.76 -56.35,3.23 -99.93,56.52 -99.61,120.32 0.27,4.63 0.53,9.28 0.76,13.92 1.15,23.02 1.73,46.18 1.73,69.49zm-1373.75 1373.76c-758.71,0 -1373.76,-615.05 -1373.76,-1373.76 0,-21.35 0.48,-42.58 1.44,-63.68 0.22,-4.71 0.46,-9.4 0.72,-14.1 0,-66.53 -47.21,-120.45 -105.44,-120.45 -53.87,0 -98.31,46.15 -104.66,105.74 -0.28,4.88 -0.54,9.75 -0.78,14.64 -1.25,25.79 -1.87,51.75 -1.87,77.85 0,875.01 709.34,1584.35 1584.34,1584.35 574.02,0 1076.73,-305.26 1354.67,-762.3l0 -592.53c-109.23,649.45 -674.17,1144.24 -1354.66,1144.24z"/>
 </g>
</svg>
