<?xml version="1.0" encoding="UTF-8"?>
<!DOCTYPE svg PUBLIC "-//W3C//DTD SVG 1.1//EN" "http://www.w3.org/Graphics/SVG/1.1/DTD/svg11.dtd">
<!-- Creator: CorelDRAW 2021 (64-Bit) -->
<svg xmlns="http://www.w3.org/2000/svg" xml:space="preserve" width="50mm" height="56mm" version="1.1" style="shape-rendering:geometricPrecision; text-rendering:geometricPrecision; image-rendering:optimizeQuality; fill-rule:evenodd; clip-rule:evenodd"
viewBox="0 0 5000 5600"
 xmlns:xlink="http://www.w3.org/1999/xlink"
 xmlns:xodm="http://www.corel.com/coreldraw/odm/2003">
 <defs>
  <style type="text/css">
   <![CDATA[
    .fil0 {fill:url(#id0)}
   ]]>
  </style>
  <linearGradient id="id0" gradientUnits="userSpaceOnUse" x1="5118.29" y1="2598.48" x2="29.59" y2="2673.53">
   <stop offset="0" style="stop-opacity:1; stop-color:#CAA8F5"/>
   <stop offset="1" style="stop-opacity:1; stop-color:#B4C5E4"/>
  </linearGradient>
 </defs>
 <g id="Layer_x0020_1">
  <metadata id="CorelCorpID_0Corel-Layer"/>
  <path class="fil0" d="M2486.74 1008.7c88.95,0 161.72,72.77 161.72,161.72l0 2673.68c0,88.95 -72.77,161.72 -161.73,161.72 -88.95,0 -161.72,-72.77 -161.72,-161.72l0 -2673.68c0,-88.95 72.77,-161.72 161.73,-161.72zm1847.94 2099.38l0 -1225.65c0,-1016.37 -831.56,-1847.94 -1847.95,-1847.94 -1016.37,0 -1847.94,831.57 -1847.94,1847.94l0 1225.65c0,1016.38 831.57,1847.94 1847.95,1847.94 1016.38,0 1847.94,-831.56 1847.94,-1847.94zm-1072.75 -1522.28c88.95,0 161.72,72.77 161.72,161.72l0 1519.48c0,88.95 -72.77,161.72 -161.73,161.72 -88.95,0 -161.72,-72.77 -161.72,-161.72l0 -1519.48c0,-88.95 72.77,-161.72 161.73,-161.72zm-1534.51 0c88.95,0 161.72,72.77 161.72,161.72l0 1519.48c0,88.95 -72.77,161.72 -161.73,161.72 -88.95,0 -161.72,-72.77 -161.72,-161.72l0 -1519.48c0,-88.95 72.77,-161.72 161.73,-161.72zm2904.43 1522.03c0,121.63 -10.16,240.88 -29.69,356.95l0 921.48c226.65,-372.71 357.19,-810.33 357.19,-1278.42 0,-46.04 -1.27,-91.8 -3.76,-137.22 -0.04,-0.65 -0.07,-1.3 -0.1,-1.95 -0.1,-1.8 -0.21,-3.61 -0.31,-5.41 -7.33,-100.65 -83.5,-177.37 -172.3,-172.26 -87.63,5.03 -155.4,87.9 -154.91,187.12 0.43,7.2 0.83,14.43 1.19,21.65 1.78,35.79 2.69,71.82 2.69,108.06zm-2136.41 2136.43c-1179.92,0 -2136.43,-956.51 -2136.43,-2136.43 0,-33.19 0.76,-66.21 2.25,-99.03 0.34,-7.32 0.71,-14.62 1.12,-21.92 0,-103.46 -73.42,-187.33 -163.98,-187.33 -83.78,0 -152.9,71.78 -162.77,164.46 -0.44,7.58 -0.84,15.16 -1.2,22.76 -1.95,40.1 -2.92,80.48 -2.92,121.07 0,1360.78 1103.14,2463.93 2463.92,2463.93 892.69,0 1674.49,-474.74 2106.73,-1185.51l0 -921.48c-169.87,1010 -1048.45,1779.48 -2106.72,1779.48z"/>
 </g>
</svg>
